<svg viewBox="0 0 330 155" fill="none" xmlns="http://www.w3.org/2000/svg">
<g clip-path="url(#clip0_108_508)">
<path d="M54.9259 140.993V151.009H41.8704V135.065H49.8922C53.5474 135.065 54.9259 136.556 54.9259 140.993ZM52.4891 141.394C52.4891 137.993 51.6176 137.011 49.2341 137.011H44.3072V149.081H52.4891V141.403V141.394Z" fill="#ED1C24"/>
<path d="M59.1858 144.099V135.065H61.676V144.099H59.1858Z" fill="#ED1C24"/>
<path d="M71.103 151.009H67.181L65.3845 135.065H67.848L69.4133 149.072H71.1119C75.4786 149.072 76.9104 147.269 76.9104 142.242V137.011H72.2503V135.074H79.3739V142.251C79.3739 148.706 76.8571 151.018 71.1119 151.018L71.103 151.009Z" fill="#ED1C24"/>
<path d="M96.645 144.34C96.645 149.259 94.8485 151.009 90.7131 151.009H89.0411V149.072H90.3395C92.9364 149.072 94.1815 148.09 94.1815 144.367V137.002H83.376V135.065H96.645V144.34ZM86.0262 141.68V154.991H83.5361V141.68H86.0262Z" fill="#ED1C24"/>
<path d="M101.198 144.099V135.065H103.689V144.099H101.198Z" fill="#ED1C24"/>
<path d="M108.162 144.099V135.065H110.652V144.099H108.162Z" fill="#ED1C24"/>
<path d="M115.392 151.009V135.065H117.882V151.009H115.392Z" fill="#ED1C24"/>
<path d="M129.738 142.501C129.738 138.171 128.626 137.002 125.318 137.002H121.289V135.065H125.842C130.502 135.065 132.219 136.743 132.219 142.296V151.009H129.729V142.501H129.738Z" fill="#ED1C24"/>
<path d="M149.099 141.841V144.233C149.099 149.099 147.373 151.009 142.926 151.009H136.648V149.072H142.446C145.595 149.072 146.626 147.581 146.626 143.992V142.082C146.626 138.493 145.595 137.002 142.446 137.002H139.031V143.43H136.648V135.056H142.926C147.373 135.056 149.099 136.966 149.099 141.832V141.841Z" fill="#ED1C24"/>
<path d="M174.454 141.867V151.009H171.99V141.894C171.99 137.957 170.932 137.002 168.042 137.002H163.755V151.009H161.265V135.065H168.735C172.809 135.065 174.454 136.556 174.454 141.867Z" fill="#ED1C24"/>
<path d="M179.167 151.009V135.065H181.657V151.009H179.167Z" fill="#ED1C24"/>
<path d="M199.48 144.34C199.48 149.259 197.683 151.009 193.548 151.009H191.876V149.072H193.175C195.771 149.072 197.016 148.09 197.016 144.367V137.002H186.211V135.065H199.48V144.34ZM188.861 141.68V154.991H186.371V141.68H188.861Z" fill="#ED1C24"/>
<path d="M204.033 144.099V135.065H206.524V144.099H204.033Z" fill="#ED1C24"/>
<path d="M223.439 141.841V144.233C223.439 149.099 221.714 151.009 217.267 151.009H210.988V149.072H216.787C219.935 149.072 220.966 147.581 220.966 143.992V142.082C220.966 138.493 219.935 137.002 216.787 137.002H213.371V143.43H210.988V135.056H217.267C221.714 135.056 223.439 136.966 223.439 141.832V141.841Z" fill="#ED1C24"/>
<path d="M227.779 151.009V135.065H230.269V151.009H227.779Z" fill="#ED1C24"/>
<path d="M249.986 137.002H241.43V132.404H243.814V135.065H253.161L247.282 151.009H244.685L249.977 137.002H249.986Z" fill="#ED1C24"/>
<path d="M256.558 151.009V135.065H259.048V151.009H256.558Z" fill="#ED1C24"/>
<path d="M276.648 151.009H274.158V137.002H263.673V135.065H276.648V151.009ZM266.27 141.68V151.009H263.78V141.68H266.27Z" fill="#ED1C24"/>
<path d="M281.415 144.099V135.065H283.905V144.099H281.415Z" fill="#ED1C24"/>
<path d="M286.449 151.009V149.072H288.459C290.184 149.072 290.762 148.331 290.762 146.358V137.002H287.747V135.065H293.252V146.653C293.252 149.893 292.274 151.009 289.357 151.009H286.449Z" fill="#ED1C24"/>
<path d="M105.307 111.353H86.3198V36.844H105.307V111.353Z" fill="#28ABE2"/>
<path d="M167.401 111.353H148.921L147.551 95.6228C147.453 94.7569 147.142 94.3194 146.608 94.3194C146.075 94.3194 145.648 94.7569 145.31 95.6228C140.783 107.363 133.09 117.317 117.153 111.353C117.536 106.229 118.407 101.979 119.75 98.5957C121.289 99.176 123.165 99.4617 125.38 99.4617C131.249 99.4617 136.212 96.3906 140.258 90.2574C143.869 84.7937 145.675 78.973 145.675 72.7862V65.0996C145.675 54.7615 141.37 49.5924 132.752 49.5924H123.005C122.81 47.5659 122.721 45.4858 122.721 43.361C122.721 41.2362 122.818 39.0579 123.005 36.835H140.116C156.24 36.835 164.306 45.4858 164.306 62.7873V77.5713C164.306 88.4451 165.338 99.7027 167.41 111.344L167.401 111.353Z" fill="#28ABE2"/>
<path d="M237.081 68.3047C237.081 81.2585 233.471 91.6234 226.249 99.3993C218.832 107.372 208.747 111.362 195.994 111.362H188.123C187.838 110.255 187.687 108.657 187.687 106.577C187.687 104.497 187.829 101.89 188.123 98.7476H191.156C199.871 98.7476 206.586 96.0872 211.299 90.7753C215.728 85.7044 217.943 78.7231 217.943 69.8313C217.943 64.1266 216.84 59.511 214.625 55.9846C211.975 51.7351 207.955 49.6104 202.566 49.6104H183.143C178.091 49.6104 175.565 45.6465 175.565 37.7189V18.6497H194.411V34.0854C194.411 35.9245 194.944 36.844 196.003 36.844H211.886C220.308 36.844 226.765 40.1025 231.238 46.6286C235.134 52.2797 237.09 59.5021 237.09 68.3047H237.081Z" fill="#28ABE2"/>
<path d="M268.075 87.4007C267.479 87.4007 266.99 86.9543 266.99 86.3919V69.4652C266.99 69.1796 267.123 68.9028 267.355 68.7153L284.288 54.8509C284.394 54.7616 284.519 54.6991 284.652 54.6545L268.991 35.978H246.491C243.938 35.978 242.551 38.9777 244.196 40.9328L261.263 61.2787C251.8 63.8677 244.827 72.5363 244.827 82.8566V108.818C244.827 110.282 246.01 111.46 247.46 111.46H268.982C270.441 111.46 271.615 110.273 271.615 108.818V87.3918H268.084L268.075 87.4007Z" fill="#01558E"/>
<path d="M329.529 108.166L310.443 85.4009C318.714 82.1245 324.575 74.054 324.575 64.5819V38.6206C324.575 37.1565 323.392 35.978 321.942 35.978H300.42C298.962 35.978 297.788 37.1654 297.788 38.6206V64.7158L302.67 68.7153C302.902 68.9028 303.035 69.1796 303.035 69.4652V86.3919C303.035 86.9454 302.546 87.4007 301.95 87.4007H283.158L303.346 111.469H327.999C329.698 111.469 330.631 109.47 329.529 108.166Z" fill="#01558E"/>
<path d="M95.64 28.4967C103.479 28.4967 109.834 22.1175 109.834 14.2484C109.834 6.37921 103.479 0 95.64 0C87.8009 0 81.446 6.37921 81.446 14.2484C81.446 22.1175 87.8009 28.4967 95.64 28.4967Z" fill="#ED1C24"/>
<path d="M58.7412 36.844H10.6899C3.56627 36.844 0 39.5044 0 44.8163V103.167C0 108.63 2.48127 111.353 7.43492 111.353H34.6933H61.9873C66.9498 111.353 69.4222 108.621 69.4222 103.167V44.8163C69.4222 39.5044 65.8559 36.844 58.7323 36.844H58.7412ZM50.5859 97.0781C50.5859 98.2387 50.079 98.819 49.0651 98.819H20.366C19.3521 98.819 18.8452 98.2387 18.8452 97.0781V50.8335C18.8452 50.0121 19.2543 49.6015 20.0725 49.6015H49.3497C50.1679 49.6015 50.577 50.0121 50.577 50.8335V97.0781H50.5859Z" fill="#28ABE2"/>
</g>
<defs>
<clipPath id="clip0_108_508">
<rect width="330" height="155" fill="white"/>
</clipPath>
</defs>
</svg>
