<svg width="69" height="69" viewBox="0 0 69 69" fill="none" xmlns="http://www.w3.org/2000/svg">
<g id="Artboard 1 copy 4 2">
<path id="Vector" d="M50.5047 37.9321C49.3647 36.8674 47.8268 36.2866 46.1598 36.2866H42.729H42.6752H42.6215C42.6215 36.2866 42.5247 36.2974 42.5354 36.2974L42.4279 36.3189C42.1052 36.4049 41.8901 36.6953 41.8901 37.0287V37.7923C41.8901 40.5348 39.6639 42.761 36.9214 42.761H32.3183C29.5759 42.761 27.3496 40.5348 27.3496 37.7923V37.0287C27.3496 36.62 27.0162 36.2974 26.586 36.2974H22.682C21.0258 36.2974 19.4879 36.8781 18.3478 37.9213C16.7346 39.4163 16.0356 41.5672 16.4657 43.6644L18.692 59.9149C18.7458 60.2806 19.0577 60.5495 19.4233 60.5495H49.4077C49.7734 60.5495 50.0853 60.2806 50.1391 59.9149L52.3546 43.7182C52.7955 41.5887 52.0965 39.427 50.5047 37.9429V37.9321ZM20.0794 59.0653L17.9392 43.4063C17.6058 41.7931 18.1327 40.1476 19.348 39.0076C19.9503 38.4376 20.7247 38.0504 21.585 37.8783L23.5639 59.0653H20.0794ZM25.0373 59.0331L23.0477 37.76H25.8762V37.7815C25.8762 41.3306 28.7693 44.2237 32.3183 44.2237H36.9214C40.4705 44.2237 43.3635 41.3306 43.3635 37.7815V37.76H46.1921L44.2024 59.0331H25.0373ZM50.9027 43.4601L48.7625 59.0653H45.6758L47.644 37.9859C48.3968 38.2117 49.0636 38.5989 49.5906 39.1151C50.7306 40.2444 51.2253 41.8576 50.8919 43.4601H50.9027Z" fill="#00539D"/>
<path id="Vector_2" d="M25.2309 21.3592H43.6108C44.0195 21.3592 44.3529 21.0258 44.3529 20.6171C44.3529 20.2084 44.0195 19.875 43.6108 19.875H25.2309C24.8222 19.875 24.4888 20.2084 24.4888 20.6171C24.4888 21.0258 24.8222 21.3592 25.2309 21.3592Z" fill="#00539D"/>
<path id="Vector_3" d="M22.6821 24.9082H23.3704C23.5102 27.6184 24.6287 30.1673 26.5431 32.1139C28.6187 34.2219 31.3935 35.3834 34.3403 35.4049H34.4156C37.3409 35.4049 40.1049 34.2757 42.1913 32.2107C44.1702 30.2534 45.3317 27.6722 45.4608 24.9082H46.1491C47.2891 24.9082 48.214 23.9833 48.214 22.8433V21.9291C48.214 20.7891 47.2891 19.8642 46.1491 19.8642C45.9985 19.8642 45.8587 19.7459 45.8479 19.5846C45.2457 14.5621 41.2234 10.4 36.2439 9.60411C36.0611 8.84051 35.362 8.27051 34.5554 8.27051H34.3188C33.5122 8.27051 32.8131 8.84051 32.6303 9.60411C27.64 10.4 23.6177 14.5621 23.0262 19.5953C23.0047 19.7566 22.8757 19.875 22.7143 19.875C21.5743 19.875 20.6494 20.7999 20.6494 21.9399V22.854C20.6494 23.994 21.5743 24.919 22.7143 24.919L22.6821 24.9082ZM41.1481 31.1675C39.3413 32.9528 36.9537 33.9315 34.351 33.9315C31.7914 33.91 29.3931 32.899 27.5863 31.0815C25.9408 29.4145 24.9728 27.242 24.8438 24.919H43.9766C43.8368 27.285 42.8366 29.5005 41.1481 31.1783V31.1675ZM22.1013 21.9399C22.1013 21.6172 22.3702 21.3591 22.6928 21.3591C23.5962 21.3591 24.3598 20.6816 24.4674 19.7782C24.9836 15.444 28.2853 11.9487 32.555 11.1313V13.9491C32.555 14.3577 32.8884 14.6911 33.2971 14.6911C33.7058 14.6911 34.0392 14.3577 34.0392 13.9491V10.0235C34.0392 9.88373 34.1575 9.76543 34.2973 9.76543H34.5339C34.6737 9.76543 34.792 9.88373 34.792 10.0235V13.9491C34.792 14.3577 35.1254 14.6911 35.5341 14.6911C35.9428 14.6911 36.2762 14.3577 36.2762 13.9491V11.1313C40.5458 11.9379 43.8475 15.444 44.3638 19.7674C44.4713 20.6708 45.2349 21.3484 46.1491 21.3484C46.4717 21.3484 46.7298 21.6065 46.7298 21.9291V22.8433C46.7298 23.1659 46.4717 23.424 46.1491 23.424H22.6821C22.3594 23.424 22.1013 23.1659 22.1013 22.8433V21.9291V21.9399Z" fill="#00539D"/>
</g>
</svg>
