<svg width="40" height="43" viewBox="0 0 40 43" fill="none" xmlns="http://www.w3.org/2000/svg">
<g id="icon:check 4" clip-path="url(#clip0_132_1063)">
<g id="Layer_1-2">
<path id="Vector" fill-rule="evenodd" clip-rule="evenodd" d="M20 0C31.0556 0 40 9.61528 40 21.5C40 33.3847 31.0556 43 20 43C8.94444 43 0 33.3847 0 21.5C0 9.61528 8.94444 0 20 0ZM6.59259 22.8338C6.27778 23.3514 6.11111 23.8093 6.5 24.1477C10.2407 27.512 13.2963 30.4384 15.4444 33.2454C16.1481 34.1611 16.5926 34.0616 17.2222 33.2056C21.9259 26.7556 27.1852 21.4801 32.5741 17.0009C33.1667 16.5032 33.1111 15.8662 32.7778 14.9704C32.1667 13.3181 31.5185 11.5065 30.4444 9.69491C29.9815 8.93843 29.5185 8.89861 28.9444 9.4162C24.2778 13.5569 20.2407 17.638 16.9074 21.7986C16.3704 22.4755 15.8148 22.3958 15.1481 21.6991C13.5741 20.0866 12.1296 18.912 10.9815 17.9366C10.3148 17.3593 9.7963 17.3991 9.33333 18.1556C8.31481 19.7681 7.48148 21.3806 6.59259 22.8338Z" fill="#ED1C24"/>
</g>
</g>
<defs>
<clipPath id="clip0_132_1063">
<rect width="40" height="43" fill="white"/>
</clipPath>
</defs>
</svg>
