<svg width="69" height="69" viewBox="0 0 69 69" fill="none" xmlns="http://www.w3.org/2000/svg">
<g id="Artboard 1 copy 3 2">
<path id="Vector" d="M41.6106 22.1543H39.4596C36.8677 22.1543 34.749 24.2429 34.749 26.8217V28.1537C34.749 28.5693 35.0824 28.8996 35.5019 28.8996H41.6106C42.03 28.8996 42.3634 28.5693 42.3634 28.1537V22.9002C42.3634 22.4846 42.03 22.1543 41.6106 22.1543ZM36.2547 27.4078V26.811C36.2547 25.0634 37.6958 23.6355 39.4596 23.6355H40.8578V27.4078H36.2547Z" fill="#00539D"/>
<path id="Vector_2" d="M57.9037 20.4704H55.8926L41.0079 8.33304C41.0079 8.33304 40.9218 8.27976 40.782 8.23713C40.739 8.23713 40.7068 8.21582 40.696 8.21582H40.5454C40.5024 8.21582 40.4594 8.22648 40.4056 8.23713L40.2766 8.27976L16.4546 20.4704H15.7448C12.6689 20.4704 10.1738 22.9426 10.1738 25.9903C10.1738 26.4059 10.5072 26.7362 10.9267 26.7362H21.4234V37.094L16.3148 41.5589C16.3148 41.5589 16.3148 41.5589 16.3256 41.5589L16.2288 41.6761L16.1643 41.772V41.804L16.0782 42.0491V44.5639C16.0782 44.9795 16.4116 45.3099 16.8311 45.3099H27.5106C27.93 45.3099 28.2634 44.9795 28.2634 44.5639V42.0384L28.2419 41.9958L28.2097 41.8253L28.1236 41.6868L28.0268 41.5589L22.9183 37.094V26.7362H32.8557C32.8557 26.8108 32.8557 26.8747 32.8557 26.9493V31.4675C32.8557 31.8831 33.1891 32.2135 33.6086 32.2135H36.7167V58.5128H33.0601C32.6406 58.5128 32.3072 58.8432 32.3072 59.2588C32.3072 59.6744 32.6406 60.0047 33.0601 60.0047H48.1383C48.5578 60.0047 48.8912 59.6744 48.8912 59.2588C48.8912 58.8432 48.5578 58.5128 48.1383 58.5128H44.4817V32.2135H45.5249C45.9443 32.2135 46.2777 31.8831 46.2777 31.4675V26.7362H50.6227V28.7396C50.6227 29.1551 50.9561 29.4855 51.3755 29.4855H57.9145C58.3339 29.4855 58.6673 29.1551 58.6673 28.7396V21.2163C58.6673 20.8007 58.3339 20.4704 57.9145 20.4704H57.9037ZM46.2777 25.2443V21.9516H50.6227V25.2443H46.2777ZM38.2224 58.5022V32.2028H42.9868V58.5022H38.2224ZM17.5947 43.8074V42.8376H26.7685V43.8074H17.5947ZM18.8315 41.3458L22.1762 38.426L25.5209 41.3458H18.8207H18.8315ZM53.5265 20.4704H44.2451L41.879 10.9544L53.5372 20.4704H53.5265ZM52.1176 27.9936V21.9623H57.1509V27.9936H52.1176ZM39.4699 10.3684L36.9533 20.4704H19.7241L39.4699 10.3684ZM39.3947 20.4704C39.0935 20.4704 38.7924 20.4917 38.4913 20.5343L40.5992 12.0627L42.6964 20.4704H39.3947ZM34.3614 26.9493C34.3614 24.2 36.6199 21.9623 39.3947 21.9623H44.7721V30.7216H34.3614V26.9493ZM35.2433 21.9623C34.2108 22.8147 33.4473 23.9656 33.0923 25.255H11.744C12.0989 23.3582 13.7659 21.9623 15.7448 21.9623H35.2325H35.2433Z" fill="#01558E"/>
</g>
</svg>
