<svg viewBox="0 0 36 36" fill="none" xmlns="http://www.w3.org/2000/svg">
<g id="&#215;&#144;&#215;&#153;&#215;&#158;&#215;&#153;&#215;&#153;&#215;&#156;">
<path id="Vector" fill-rule="evenodd" clip-rule="evenodd" d="M29.5594 7.98193H6.44062C5.36625 7.98193 4.5 8.85381 4.5 9.92256V26.0776C4.5 27.1519 5.37187 28.0182 6.44062 28.0182H29.5538C30.6281 28.0182 31.4944 27.1463 31.4944 26.0776V9.92256C31.4944 8.84818 30.6225 7.98193 29.5538 7.98193H29.5594ZM29.4412 9.24756L18.6075 18.2532C18.2588 18.5513 17.7413 18.5513 17.3925 18.2532L6.56437 9.24193H29.4412V9.24756ZM5.76562 25.7682V10.2263L15.1144 17.9944L5.76562 25.7626V25.7682ZM6.55875 26.7526L16.0988 18.8213L16.5769 19.2207C17.3981 19.9013 18.5906 19.9013 19.4062 19.2207L19.8844 18.8213L29.43 26.7526H6.56437H6.55875ZM30.2288 25.7682L20.88 18.0001L30.2288 10.2319V25.7738V25.7682Z" fill="#00539D"/>
</g>
</svg>
