<svg width="70" height="69" viewBox="0 0 70 69" fill="none" xmlns="http://www.w3.org/2000/svg">
<path d="M27.0597 43.998H20.2304C19.811 43.998 19.4668 44.3422 19.4668 44.7616V51.9674C19.4668 52.3868 19.811 52.731 20.2304 52.731H27.0597C27.4791 52.731 27.8233 52.3868 27.8233 51.9674V44.7616C27.8233 44.3422 27.4791 43.998 27.0597 43.998ZM20.994 51.2038V45.5252H26.2961V51.2038H20.994Z" fill="#00539D"/>
<path d="M43.0092 52.731H49.8385C50.2579 52.731 50.6021 52.3868 50.6021 51.9674V44.7616C50.6021 44.3422 50.2579 43.998 49.8385 43.998H43.0092C42.5898 43.998 42.2456 44.3422 42.2456 44.7616V51.9674C42.2456 52.3868 42.5898 52.731 43.0092 52.731ZM49.0749 45.5252V51.2038H43.7728V45.5252H49.0749Z" fill="#00539D"/>
<path d="M59.3242 22.7357L50.3332 17.3368V10.2709C50.3332 9.85145 49.9891 9.5073 49.5696 9.5073H46.2141C45.7947 9.5073 45.4505 9.85145 45.4505 10.2709V14.4007L35.4378 8.3888C35.3195 8.31351 35.1797 8.28125 35.0399 8.28125C34.9 8.28125 34.7602 8.32427 34.6527 8.3888L10.777 22.7357C10.4866 22.9078 10.3468 23.2627 10.4328 23.5961C10.5189 23.9295 10.82 24.1554 11.1642 24.1554H14.5412V59.7968C14.5412 60.2163 14.8853 60.5604 15.3048 60.5604H54.775C55.1944 60.5604 55.5385 60.2163 55.5385 59.7968V24.1446H58.9156C59.2597 24.1446 59.5608 23.9188 59.6469 23.5854C59.7329 23.252 59.5931 22.9078 59.3027 22.725L59.3242 22.7357ZM16.0899 25.1448V24.1446H54.0329V25.1448H16.0899ZM35.3518 43.998H34.7172C32.5878 43.998 30.8562 45.7295 30.8562 47.859V56.1079H16.0791V26.6612H54.0221V56.1079H39.202V47.859C39.202 45.7295 37.4704 43.998 35.341 43.998H35.3518ZM34.7172 45.5252H35.3518C36.6423 45.5252 37.6855 46.5684 37.6855 47.859V56.1079H32.3834V47.859C32.3834 46.5684 33.4266 45.5252 34.7172 45.5252ZM38.4491 57.7857C38.6105 57.7857 38.7718 57.7319 38.9008 57.6351H54.0329V59.0225H16.0899V57.6351H31.1681C31.2972 57.7319 31.4585 57.7857 31.6198 57.7857H38.4491ZM48.8168 11.0237V16.4119L46.9885 15.3149V11.0237H48.8168ZM56.1838 22.6174H13.9389L35.0614 9.92674L56.1838 22.6174Z" fill="#01558E"/>
<path d="M27.0597 30.6621H20.2304C19.811 30.6621 19.4668 31.0063 19.4668 31.4257V38.6314C19.4668 39.0509 19.811 39.395 20.2304 39.395H27.0597C27.4791 39.395 27.8233 39.0509 27.8233 38.6314V31.4257C27.8233 31.0063 27.4791 30.6621 27.0597 30.6621ZM20.994 37.8678V32.1893H26.2961V37.8678H20.994Z" fill="#00539D"/>
<path d="M43.0092 39.395H49.8385C50.2579 39.395 50.6021 39.0509 50.6021 38.6314V31.4257C50.6021 31.0063 50.2579 30.6621 49.8385 30.6621H43.0092C42.5898 30.6621 42.2456 31.0063 42.2456 31.4257V38.6314C42.2456 39.0509 42.5898 39.395 43.0092 39.395ZM49.0749 32.1893V37.8678H43.7728V32.1893H49.0749Z" fill="#00539D"/>
<path d="M39.2344 31.4257C39.2344 31.0063 38.8903 30.6621 38.4708 30.6621H31.6415C31.2221 30.6621 30.8779 31.0063 30.8779 31.4257V38.6314C30.8779 39.0509 31.2221 39.395 31.6415 39.395H38.4708C38.8903 39.395 39.2344 39.0509 39.2344 38.6314V31.4257ZM32.4051 37.8678V32.1893H37.7072V37.8678H32.4051Z" fill="#00539D"/>
<path d="M33.6528 52.9565C34.0722 52.9565 34.4163 52.6123 34.4163 52.1929V50.4291C34.4163 50.0097 34.0722 49.6655 33.6528 49.6655C33.2333 49.6655 32.8892 50.0097 32.8892 50.4291V52.1929C32.8892 52.6123 33.2333 52.9565 33.6528 52.9565Z" fill="#00539D"/>
</svg>
