<svg viewBox="0 0 36 36" fill="none" xmlns="http://www.w3.org/2000/svg">
<g id="&#215;&#158;&#215;&#153;&#215;&#167;&#215;&#149;&#215;&#157;">
<path id="Vector" d="M21.0261 17.3306C21.8024 16.5487 22.2805 15.4799 22.2805 14.2987C22.2805 13.1174 21.8136 12.0712 21.0543 11.3006L21.0261 11.2724C20.2499 10.4962 19.1811 10.0181 17.9943 10.0181C16.8074 10.0181 15.7386 10.4962 14.9624 11.2724C14.1861 12.0487 13.708 13.1231 13.708 14.3043C13.708 15.4856 14.1861 16.5599 14.9624 17.3362C15.7386 18.1124 16.813 18.5906 17.9943 18.5906C19.1755 18.5906 20.2443 18.1124 21.0205 17.3362L21.0261 17.3306ZM15.7161 16.5824C15.1311 15.9974 14.7711 15.1931 14.7711 14.2987C14.7711 13.4043 15.1311 12.5999 15.7161 12.0149C16.3011 11.4299 17.1055 11.0699 17.9999 11.0699C18.8943 11.0699 19.6986 11.4299 20.2836 12.0149L20.3061 12.0374C20.8743 12.6168 21.2286 13.4156 21.2286 14.2987C21.2286 15.1818 20.8686 15.9974 20.2836 16.5824C19.6986 17.1674 18.8943 17.5274 17.9999 17.5274C17.1055 17.5274 16.3011 17.1674 15.7161 16.5824Z" fill="#00539D"/>
<path id="Vector_2" d="M22.4043 26.9438C21.9599 26.7244 21.3862 26.5387 20.728 26.3981C21.0093 26.0156 21.2962 25.6331 21.583 25.245C24.2043 21.7181 26.9549 18.0225 26.9549 14.2987C26.9549 11.8238 25.9537 9.585 24.3337 7.965C22.7137 6.345 20.4749 5.34375 17.9999 5.34375C15.5249 5.34375 13.2862 6.345 11.6662 7.965C10.0462 9.585 9.04492 11.8238 9.04492 14.2987C9.04492 18.0225 11.7955 21.7181 14.4168 25.245C14.7037 25.6331 14.9905 26.0156 15.2718 26.3981C14.6137 26.5331 14.0399 26.7188 13.5955 26.9438C12.8474 27.315 12.4087 27.8156 12.4087 28.4006C12.4087 29.1319 13.1118 29.7338 14.248 30.1275C15.2155 30.4594 16.543 30.6619 17.9943 30.6619C19.4455 30.6619 20.773 30.4594 21.7405 30.1275C22.8768 29.7394 23.5799 29.1319 23.5799 28.4006C23.5799 27.8156 23.1412 27.315 22.393 26.9438H22.4043ZM15.2662 24.6206C12.7462 21.2344 10.1024 17.6794 10.1024 14.3044C10.1024 12.1219 10.9855 10.1475 12.4143 8.71875C13.843 7.29 15.8174 6.40688 17.9999 6.40688C20.1824 6.40688 22.1568 7.29 23.5855 8.71875C25.0143 10.1475 25.8974 12.1219 25.8974 14.3044C25.8974 17.685 23.2537 21.2344 20.7337 24.6206C20.0024 25.5994 19.2824 26.5725 18.6187 27.5456C18.5455 27.6525 18.4555 27.7369 18.3543 27.7875C18.253 27.8438 18.1349 27.8719 17.9999 27.8719C17.8649 27.8719 17.7468 27.8438 17.6455 27.7875C17.5443 27.7313 17.4487 27.6525 17.3812 27.5456C16.7174 26.5725 15.9974 25.605 15.2662 24.6206ZM21.4087 29.1206C20.548 29.4131 19.3387 29.5987 17.9999 29.5987C16.6612 29.5987 15.4518 29.4131 14.5912 29.1206C13.8993 28.8844 13.4718 28.6256 13.4718 28.395C13.4718 28.2544 13.6912 28.0744 14.068 27.8888C14.5349 27.6581 15.1874 27.4669 15.9637 27.3431C16.1549 27.6075 16.3349 27.8719 16.5093 28.1306C16.6837 28.3837 16.903 28.5806 17.1562 28.7156C17.4093 28.8506 17.6962 28.9237 17.9999 28.9237C18.3037 28.9237 18.5905 28.8506 18.8437 28.7156C19.0968 28.5806 19.3162 28.3837 19.4905 28.1306C19.6649 27.8719 19.8505 27.6075 20.0362 27.3431C20.8068 27.4669 21.4649 27.6525 21.9318 27.8888C22.3087 28.0744 22.528 28.2544 22.528 28.395C22.528 28.62 22.1005 28.8787 21.4087 29.1206Z" fill="#00539D"/>
</g>
</svg>
