<svg width="24" height="24" viewBox="0 0 24 24" fill="none" xmlns="http://www.w3.org/2000/svg">
<g clip-path="url(#clip0_132_954)">
<path d="M16.2589 18.2401C15.9681 17.7601 15.4969 17.4301 14.9554 17.3201C14.8251 17.2901 14.6847 17.2801 14.5544 17.2701C14.2836 17.2701 14.0129 17.2401 13.7522 17.1801C12.6794 16.9501 11.7369 16.2901 11.1453 15.3501L7.4254 9.39007C6.68342 8.20007 6.57313 6.69007 7.1246 5.38007C7.40534 4.72007 7.35521 3.97007 6.99425 3.37007L5.72086 1.32007C5.33985 0.710066 4.68812 0.350066 3.98625 0.360066C3.28438 0.360066 2.62262 0.740066 2.23158 1.35007C1.1487 3.09007 0.557129 5.10007 0.557129 7.15007C0.557129 9.20007 1.1086 11.2001 2.17142 12.9201L5.88129 18.8701C6.61323 20.0501 7.55574 21.0601 8.67873 21.8501C9.79169 22.6401 11.055 23.1901 12.3886 23.4701C13.6018 23.7301 14.8451 23.7601 16.0784 23.5701C16.7702 23.4601 17.3718 22.9901 17.6626 22.3301C17.9634 21.6601 17.9133 20.8901 17.5323 20.2801L16.2489 18.2301L16.2589 18.2401Z" fill="#01558E"/>
<path d="M22.3751 4.09007C20.5502 1.11007 17.1412 -0.449932 13.6318 0.120068C13.0002 0.220068 12.579 0.810068 12.6793 1.44007C12.7796 2.06007 13.321 2.49007 14.0028 2.39007C16.5496 1.98007 19.0763 3.11007 20.4099 5.30007C21.7534 7.48007 21.6231 10.2401 20.089 12.3201C19.708 12.8301 19.8183 13.5501 20.3296 13.9201C20.5402 14.0701 20.7708 14.1401 21.0115 14.1401C21.3624 14.1401 21.7133 13.9801 21.9339 13.6701C24.0295 10.8301 24.1999 7.08007 22.3651 4.10007L22.3751 4.09007Z" fill="#01558E"/>
<path d="M12.2583 4.54C11.6266 4.64 11.2055 5.23 11.3058 5.86C11.406 6.48 11.9575 6.92 12.6293 6.81C13.8024 6.64 14.9354 7.14 15.547 8.13C16.1486 9.12 16.0885 10.37 15.3966 11.31C15.0156 11.82 15.136 12.54 15.6473 12.92C15.8478 13.07 16.0885 13.14 16.3291 13.14C16.6801 13.14 17.031 12.98 17.2516 12.67C18.5049 10.97 18.6052 8.72 17.5123 6.93C16.4194 5.15 14.3739 4.21 12.2683 4.55L12.2583 4.54Z" fill="#01558E"/>
</g>
<defs>
<clipPath id="clip0_132_954">
<rect width="23.0814" height="23.7" fill="white" transform="translate(0.557129)"/>
</clipPath>
</defs>
</svg>
