<svg width="63" height="70" viewBox="0 0 63 70" fill="none" xmlns="http://www.w3.org/2000/svg">
<g id="Artboard 1 copy 4">
<path id="Vector" d="M54.2318 32.8319H45.7903V27.5029H46.8443C47.2408 27.5029 47.5695 27.1338 47.5695 26.6888C47.5695 26.2439 47.2408 25.8748 46.8443 25.8748H45.7903V19.8077H46.8443C47.2408 19.8077 47.5695 19.4387 47.5695 18.9937C47.5695 18.5487 47.2408 18.1797 46.8443 18.1797H45.7903V13.3065C45.7903 12.8615 45.4616 12.4925 45.0651 12.4925H40.0273V11.2769C40.0273 10.8319 39.6986 10.4629 39.3021 10.4629C38.9057 10.4629 38.5769 10.8319 38.5769 11.2769V12.4925H33.1717V11.2769C33.1717 10.8319 32.8429 10.4629 32.4465 10.4629C32.05 10.4629 31.7213 10.8319 31.7213 11.2769V12.4925H10.6418C10.2454 12.4925 9.91661 12.8615 9.91661 13.3065V29.9883H8.68859C8.29214 29.9883 7.96338 30.3573 7.96338 30.8023C7.96338 31.2473 8.29214 31.6163 8.68859 31.6163H9.91661V37.6834H8.68859C8.29214 37.6834 7.96338 38.0524 7.96338 38.4974C7.96338 38.9424 8.29214 39.3115 8.68859 39.3115H9.91661V55.9933C9.91661 56.4382 10.2454 56.8073 10.6418 56.8073H19.7988V58.1857C19.7988 58.6307 20.1276 58.9997 20.524 58.9997C20.9205 58.9997 21.2492 58.6307 21.2492 58.1857V56.8073H26.6545V58.1857C26.6545 58.6307 26.9832 58.9997 27.3797 58.9997C27.7761 58.9997 28.1049 58.6307 28.1049 58.1857V56.8073H37.0395C37.4359 56.8073 37.7647 56.4382 37.7647 55.9933V45.3243H41.4197V47.0066C41.4197 47.4516 41.7485 47.8206 42.1449 47.8206C42.5414 47.8206 42.8702 47.4516 42.8702 47.0066V45.3243H48.2754V47.0066C48.2754 47.4516 48.6041 47.8206 49.0006 47.8206C49.397 47.8206 49.7258 47.4516 49.7258 47.0066V45.3243H54.2124C54.6089 45.3243 54.9376 44.9553 54.9376 44.5103V33.6459C54.9376 33.2009 54.6089 32.8319 54.2124 32.8319H54.2318ZM48.2947 42.6218V43.6963H42.8895V42.6218C42.8895 42.1768 42.5607 41.8078 42.1643 41.8078C41.7678 41.8078 41.4391 42.1768 41.4391 42.6218V43.6963H28.3079C28.3756 43.2621 28.5207 42.6977 28.8881 42.2527C29.3426 41.6884 30.0678 41.4062 31.0347 41.4062C31.4312 41.4062 31.7599 41.0372 31.7599 40.5922C31.7599 40.1472 31.4312 39.7782 31.0347 39.7782C29.6423 39.7782 28.5593 40.2448 27.8148 41.1565C26.6641 42.5783 26.8188 44.4994 26.8188 44.5862C26.8575 45.0095 27.1669 45.3243 27.5441 45.3243H36.3336V55.1792H28.1242V53.8008C28.1242 53.3559 27.7955 52.9868 27.399 52.9868C27.0026 52.9868 26.6738 53.3559 26.6738 53.8008V55.1792H21.2686V53.8008C21.2686 53.3559 20.9398 52.9868 20.5434 52.9868C20.1469 52.9868 19.8181 53.3559 19.8181 53.8008V55.1792H11.3864V45.6282H22.0228C22.4192 45.6282 22.748 45.2592 22.748 44.8142C22.748 44.7599 22.748 44.7056 22.7287 44.6405V44.5862C22.7383 44.4994 22.893 42.5783 21.7424 41.1565C20.9978 40.234 19.9148 39.7782 18.5224 39.7782C18.126 39.7782 17.7972 40.1472 17.7972 40.5922C17.7972 41.0372 18.126 41.4062 18.5224 41.4062C19.4894 41.4062 20.2146 41.6884 20.6691 42.2527C21.1235 42.8063 21.2492 43.5443 21.2782 44.0002H11.3767V39.3115H12.6047C13.0012 39.3115 13.3299 38.9424 13.3299 38.4974C13.3299 38.0524 13.0012 37.6834 12.6047 37.6834H11.3767V31.6163H12.6047C13.0012 31.6163 13.3299 31.2473 13.3299 30.8023C13.3299 30.3573 13.0012 29.9883 12.6047 29.9883H11.3767V14.1205H26.8188V27.3618H16.6466C16.5789 26.678 16.3565 25.6578 15.6796 24.8221C14.9351 23.8995 13.8521 23.4437 12.4597 23.4437C12.0632 23.4437 11.7345 23.8127 11.7345 24.2577C11.7345 24.7027 12.0632 25.0717 12.4597 25.0717C13.4266 25.0717 14.1518 25.3539 14.6063 25.9183C15.3122 26.7865 15.2251 28.0889 15.2251 28.0998C15.2058 28.3386 15.2832 28.5665 15.4669 28.7619C15.5249 28.827 15.5926 28.8704 15.6603 28.903L15.7666 28.9464C15.7666 28.9464 15.815 28.9681 15.8923 28.9789H15.9117H26.8285V36.6198C26.8285 37.0648 27.1573 37.4338 27.5537 37.4338C27.9502 37.4338 28.2789 37.0648 28.2789 36.6198V14.1097H31.7213V15.6617C31.7213 16.1067 32.05 16.4757 32.4465 16.4757C32.8429 16.4757 33.1717 16.1067 33.1717 15.6617V14.1097H38.5769V15.6617C38.5769 16.1067 38.9057 16.4757 39.3021 16.4757C39.6986 16.4757 40.0273 16.1067 40.0273 15.6617V14.1097H44.3399V18.1689H42.9282C42.5317 18.1689 42.203 18.5379 42.203 18.9829C42.203 19.4279 42.5317 19.7969 42.9282 19.7969H44.3399V25.864H42.9282C42.5317 25.864 42.203 26.233 42.203 26.678C42.203 27.123 42.5317 27.492 42.9282 27.492H44.3399V33.6351C44.3399 34.0801 44.6687 34.4491 45.0651 34.4491H53.5066V43.6854H49.7451V42.6109C49.7451 42.1659 49.4164 41.7969 49.0199 41.7969C48.6235 41.7969 48.2947 42.1659 48.2947 42.6109V42.6218Z" fill="#01558E"/>
</g>
</svg>
