<svg width="69" height="69" viewBox="0 0 69 69" fill="none" xmlns="http://www.w3.org/2000/svg">
<g id="Artboard 1 copy 2 1">
<path id="Vector" d="M44.9887 18.1435H43.1559C42.8468 18.1435 42.5378 18.208 42.2501 18.3263C41.9517 17.3154 41.0353 16.6055 39.9697 16.6055H38.1368C37.7958 16.6055 37.4761 16.6808 37.1671 16.8099C36.8048 15.9172 35.931 15.3042 34.9506 15.3042H33.1178C32.1374 15.3042 31.2636 15.9172 30.9013 16.8099C30.6029 16.6701 30.2726 16.6055 29.9316 16.6055H28.0987C26.7774 16.6055 25.7011 17.6918 25.7011 19.0254L25.7863 35.2759L25.7544 35.2221C25.2962 34.4908 24.6781 33.9208 23.9855 33.5659C23.3781 33.2647 22.728 33.1142 22.0567 33.1142C19.7017 33.1142 17.7729 34.9748 17.6877 35.05C17.4746 35.2544 17.3573 35.5555 17.3467 35.8567C17.3467 36.1255 17.4319 36.3729 17.5598 36.5234L17.7516 36.8891C21.8862 44.5573 24.2519 48.9345 24.5822 49.5368L25.424 51.0532C25.5413 52.4513 26.7028 53.5483 28.1094 53.5483H41.9624C43.4436 53.5483 44.6584 52.333 44.6584 50.8274C44.6584 50.5477 45.3297 49.5045 45.6494 49.0098C46.1716 48.2032 46.6298 47.5041 46.7363 46.9234C46.779 46.6868 46.8322 46.4717 46.8855 46.2351C47.12 45.1596 47.365 44.0518 47.365 41.8471V20.5633C47.365 19.2297 46.2888 18.1435 44.9674 18.1435H44.9887ZM38.1475 18.2188H39.9803C40.4172 18.2188 40.7689 18.5737 40.7689 19.0146V31.5762C39.682 31.3611 38.5311 31.2213 37.3589 31.1568V19.0146C37.3589 18.5737 37.7106 18.2188 38.1475 18.2188ZM41.9837 51.9136H28.1307C27.534 51.9136 27.0438 51.4189 27.0438 50.8166C27.0438 50.6768 27.0118 50.5477 26.9479 50.4187L26.0208 48.7409C25.7011 48.1602 23.442 43.9873 19.3287 36.3514L19.1156 35.9534C19.6484 35.5233 20.8206 34.7166 22.0887 34.7166C22.5149 34.7166 22.9198 34.8134 23.2928 34.9963C23.7297 35.2114 24.124 35.5878 24.4224 36.061L25.9355 38.4593C26.0847 38.6852 26.3298 38.825 26.6708 38.8357C31.7538 38.8357 35.899 43.0516 35.899 48.2354C35.899 48.6871 36.2613 49.0421 36.6982 49.0421C37.1351 49.0421 37.4975 48.6764 37.4975 48.2354C37.4975 42.4063 33.0965 37.642 27.4061 37.2548V33.9423C27.534 34.0498 27.7151 34.1144 27.8963 34.1144C28.0028 34.1144 28.1094 34.0929 28.2053 34.0498C30.2619 33.2002 32.9792 32.727 35.8564 32.727C39.4262 32.727 42.7722 33.4691 44.8182 34.7059C44.9461 34.7812 45.0846 34.8242 45.2338 34.8242C45.4469 34.8242 45.6387 34.7381 45.7879 34.5983V41.8363C45.7879 43.8582 45.5642 44.8799 45.3297 45.9232C45.2871 46.1383 45.2338 46.3534 45.1912 46.5792C45.1379 46.8481 44.669 47.5686 44.328 48.0956C43.678 49.0958 43.0706 50.0423 43.0706 50.8058C43.0706 51.4081 42.5804 51.9028 41.9837 51.9028V51.9136ZM30.7415 31.6193C29.5693 31.8666 28.5143 32.1785 27.5979 32.5549C27.5233 32.5872 27.4594 32.6195 27.4061 32.6732L27.3315 19.0146C27.3315 18.5737 27.6831 18.2188 28.12 18.2188H29.9529C30.3898 18.2188 30.7415 18.5737 30.7415 19.0146V31.6193ZM45.6494 33.3293C44.7543 32.7915 43.6567 32.3291 42.378 31.9634V20.5526C42.378 20.1116 42.7296 19.7567 43.1665 19.7567H44.9994C45.4363 19.7567 45.7879 20.1116 45.7879 20.5526V33.4261C45.7879 33.4261 45.7027 33.3508 45.6494 33.3185V33.3293ZM33.1391 16.9282H34.9719C35.4088 16.9282 35.7605 17.2831 35.7605 17.724V31.1138C34.6203 31.1138 33.4694 31.1998 32.3505 31.3504V17.724C32.3505 17.2831 32.7022 16.9282 33.1391 16.9282Z" fill="#01558E"/>
<path id="Vector_2" d="M59.9608 23.3487L45.2659 8.51786C45.1168 8.36729 44.9143 8.28125 44.7012 8.28125H23.911C23.6979 8.28125 23.4954 8.36729 23.3463 8.51786L8.65143 23.3487C8.50224 23.4993 8.41699 23.7037 8.41699 23.9188V44.9014C8.41699 45.1165 8.50224 45.3208 8.65143 45.4714L23.3463 60.3023C23.4954 60.4529 23.6979 60.5389 23.911 60.5389H44.7012C44.9143 60.5389 45.1168 60.4529 45.2659 60.3023L59.9608 45.4714C60.11 45.3208 60.1952 45.1165 60.1952 44.9014V23.9188C60.1952 23.7037 60.11 23.4993 59.9608 23.3487ZM24.2414 58.9364L10.0154 44.5788V24.2737L24.2414 9.91598H44.3602L58.5861 24.2737V44.5788L44.3602 58.9364H24.2414Z" fill="#00539D"/>
</g>
</svg>
